<svg xmlns="http://www.w3.org/2000/svg" viewBox="0 0 400 400" fill="none">
  <rect width="400" height="400" rx="32" fill="#FEF3C7"/>
  <circle cx="200" cy="185" r="95" fill="#92400E" opacity="0.12"/>
  <ellipse cx="200" cy="210" rx="70" ry="12" fill="#78350F" opacity="0.25"/>
  <path d="M145 195 C145 150 170 130 200 130 C230 130 255 150 255 195 L255 220 C255 245 230 260 200 260 C170 260 145 245 145 220 Z" fill="#92400E"/>
  <path d="M255 185 L285 175 C295 172 300 180 300 195 C300 210 295 218 285 215 L255 205" stroke="#92400E" stroke-width="8" fill="none" stroke-linecap="round"/>
  <path d="M175 130 C185 115 215 115 225 130" stroke="#D97706" stroke-width="5" fill="none" stroke-linecap="round"/>
  <circle cx="200" cy="195" r="28" fill="#FBBF24" opacity="0.5"/>
  <text x="200" y="320" text-anchor="middle" font-family="Georgia,serif" font-size="32" font-weight="700" fill="#78350F">Brew</text>
  <text x="200" y="352" text-anchor="middle" font-family="Georgia,serif" font-size="14" fill="#A16207" letter-spacing="3">ARTISAN COFFEE</text>
</svg>
