<svg xmlns="http://www.w3.org/2000/svg" width="1200" height="630" viewBox="0 0 1200 630" fill="none" role="img" aria-label="스포츠 커뮤니티">
  <defs>
    <linearGradient id="bg" x1="0" y1="0" x2="1" y2="1">
    <stop stop-color="#16A34A"/>
    <stop offset="1" stop-color="#15803D"/>
  </linearGradient>
    <filter id="glow" x="-20%" y="-20%" width="140%" height="140%">
      <feGaussianBlur stdDeviation="18" result="blur"/>
      <feMerge><feMergeNode in="blur"/><feMergeNode in="SourceGraphic"/></feMerge>
    </filter>
  </defs>
  <rect width="1200" height="630" fill="url(#bg)"/>
  <circle cx="980" cy="120" r="200" fill="#ffffff" opacity="0.08"/>
  <circle cx="180" cy="520" r="240" fill="#000000" opacity="0.08"/>
  <rect x="80" y="180" width="112" height="112" rx="28" fill="#ffffff" fill-opacity="0.15" stroke="#ffffff" stroke-opacity="0.2"/>
  <g transform="translate(80,180) scale(3.5)" filter="url(#glow)">
    
      <circle cx="16" cy="17" r="7.5" fill="#fff"/>
      <path d="M16 9.5l2.2 3.2 4.2 .2-1.8 3.2-3.2-2.2-4.2 .2z" fill="#15803D" opacity="0.85"/>
      <path d="M11 17l2.5-1.5 2.5 1.5-1 2.8v-3z" fill="#15803D" opacity="0.55"/>
      <path d="M9 26h14" stroke="#BBF7D0" stroke-width="1.8" stroke-linecap="round"/>
      <path d="M13 22h6l1 4h-8z" fill="#FEF3C7"/>
      <path d="M14 22h4v2h-4z" fill="#FCD34D"/>
    
  </g>
  <text x="230" y="235" font-family="system-ui,sans-serif" font-size="68" font-weight="800" fill="#ffffff">스포츠 커뮤니티</text>
  <text x="230" y="300" font-family="system-ui,sans-serif" font-size="30" fill="#ffffff" opacity="0.8">sports.restyart.com</text>
  <text x="80" y="560" font-family="system-ui,sans-serif" font-size="22" fill="#ffffff" opacity="0.45">Powered by Restyart</text>
</svg>