<svg xmlns="http://www.w3.org/2000/svg" width="1200" height="630" viewBox="0 0 1200 630" fill="none" role="img" aria-label="케어브릿지">
  <defs>
    <linearGradient id="bg" x1="0" y1="0" x2="1" y2="1">
    <stop stop-color="#2563EB"/>
    <stop offset="1" stop-color="#1D4ED8"/>
  </linearGradient>
    <filter id="glow" x="-20%" y="-20%" width="140%" height="140%">
      <feGaussianBlur stdDeviation="18" result="blur"/>
      <feMerge><feMergeNode in="blur"/><feMergeNode in="SourceGraphic"/></feMerge>
    </filter>
  </defs>
  <rect width="1200" height="630" fill="url(#bg)"/>
  <circle cx="980" cy="120" r="200" fill="#ffffff" opacity="0.08"/>
  <circle cx="180" cy="520" r="240" fill="#000000" opacity="0.08"/>
  <rect x="80" y="180" width="112" height="112" rx="28" fill="#ffffff" fill-opacity="0.15" stroke="#ffffff" stroke-opacity="0.2"/>
  <g transform="translate(80,180) scale(3.5)" filter="url(#glow)">
    
      <path d="M16 24c-4-3-8-6-8-10a4 4 0 0 1 8 0 4 4 0 0 1 8 0c0 4-4 7-8 10z" fill="#fff"/>
      <path d="M6 26h20" stroke="#BFDBFE" stroke-width="2" stroke-linecap="round"/>
      <path d="M8 26q8-4 16 0" stroke="#fff" stroke-width="1.5" fill="none" stroke-linecap="round"/>
    
  </g>
  <text x="230" y="235" font-family="system-ui,sans-serif" font-size="68" font-weight="800" fill="#ffffff">케어브릿지</text>
  <text x="230" y="300" font-family="system-ui,sans-serif" font-size="30" fill="#ffffff" opacity="0.8">care.restyart.com</text>
  <text x="80" y="560" font-family="system-ui,sans-serif" font-size="22" fill="#ffffff" opacity="0.45">Powered by Restyart</text>
</svg>