<svg xmlns="http://www.w3.org/2000/svg" viewBox="0 0 48 48" width="180" height="180" fill="none" role="img" aria-label="CaffeCritic">
  <defs><linearGradient id="mark-bg" x1="0" y1="0" x2="1" y2="1">
    <stop stop-color="#D97706"/>
    <stop offset="1" stop-color="#92400E"/>
  </linearGradient></defs>
  <rect width="48" height="48" rx="12" fill="url(#mark-bg)"/>
  <rect x="1.5" y="1.5" width="45" height="45" rx="10.5" fill="none" stroke="#ffffff" stroke-opacity="0.14"/>
  
      <path d="M15 18h18v15c0 3.3000000000000003-2.7 6-6 6h-6c-3.3000000000000003 0-6-2.7-6-6V18z" fill="#fff"/>
      <path d="M33 21h3c1.6500000000000001 0 3 1.35 3 3s-1.35 3-3 3h-3" stroke="#fff" stroke-width="2.4000000000000004" fill="none" stroke-linecap="round"/>
      <path d="M19.5 12c0-1 1.5-2 4.5-2M24 10.5c0-1.2 1.7999999999999998-2.2 4.5-2.2M28.5 12c0-1 1.5-2 4.5-2" stroke="#FEF3C7" stroke-width="1.7999999999999998" stroke-linecap="round"/>
    
</svg>