<svg xmlns="http://www.w3.org/2000/svg" viewBox="0 0 32 32" fill="none" role="img" aria-label="CaffeCritic">
  <defs><linearGradient id="bg" x1="0" y1="0" x2="1" y2="1">
    <stop stop-color="#D97706"/>
    <stop offset="1" stop-color="#92400E"/>
  </linearGradient></defs>
  <rect width="32" height="32" rx="8" fill="url(#bg)"/>
  <rect x="1" y="1" width="30" height="30" rx="7" fill="none" stroke="#ffffff" stroke-opacity="0.12"/>
  
      <path d="M10 12h12v10c0 2.2-1.8 4-4 4h-4c-2.2 0-4-1.8-4-4V12z" fill="#fff"/>
      <path d="M22 14h2c1.1 0 2 0.9 2 2s-0.9 2-2 2h-2" stroke="#fff" stroke-width="1.6" fill="none" stroke-linecap="round"/>
      <path d="M13 8c0-1 1-2 3-2M16 7c0-1.2 1.2-2.2 3-2.2M19 8c0-1 1-2 3-2" stroke="#FEF3C7" stroke-width="1.2" stroke-linecap="round"/>
    
</svg>