<svg xmlns="http://www.w3.org/2000/svg" viewBox="0 0 220 48" fill="none" role="img" aria-label="CaffeCritic">
  <defs><linearGradient id="logo-grad" x1="0" y1="0" x2="1" y2="1">
    <stop stop-color="#D97706"/>
    <stop offset="1" stop-color="#92400E"/>
  </linearGradient></defs>
  <rect x="0" y="4" width="40" height="40" rx="10" fill="url(#logo-grad)"/>
  <rect x="1" y="5" width="38" height="38" rx="9" fill="none" stroke="#ffffff" stroke-opacity="0.14"/>
  
      <path d="M12.5 15h15v12.5c0 2.75-2.25 5-5 5h-5c-2.75 0-5-2.25-5-5V15z" fill="#fff"/>
      <path d="M27.5 17.5h2.5c1.375 0 2.5 1.125 2.5 2.5s-1.125 2.5-2.5 2.5h-2.5" stroke="#fff" stroke-width="2" fill="none" stroke-linecap="round"/>
      <path d="M16.25 10c0-1 1.25-2 3.75-2M20 8.75c0-1.2 1.5-2.2 3.75-2.2M23.75 10c0-1 1.25-2 3.75-2" stroke="#FEF3C7" stroke-width="1.5" stroke-linecap="round"/>
    
  <text x="50" y="33" font-family="system-ui, -apple-system, sans-serif" font-size="22" font-weight="800"><tspan fill="#111827">Caffe</tspan><tspan fill="#F59E0B">Critic</tspan></text>
</svg>