<svg xmlns="http://www.w3.org/2000/svg" viewBox="0 0 230 48" fill="none" role="img" aria-label="마음클리닉">
  <defs><linearGradient id="logo-grad" x1="0" y1="0" x2="1" y2="1">
    <stop stop-color="#A78BFA"/>
    <stop offset="1" stop-color="#8B5CF6"/>
  </linearGradient></defs>
  <rect x="0" y="4" width="40" height="40" rx="10" fill="url(#logo-grad)"/>
  <rect x="1" y="5" width="38" height="38" rx="9" fill="none" stroke="#ffffff" stroke-opacity="0.14"/>
  
      <path d="M20 31.25c-4.75-3.75-9.375-7.25-9.375-11.875a4.75 4.75 0 0 1 9.375 0 4.75 4.75 0 0 1 9.375 0c0 4.625-4.625 8.125-9.375 11.875z" fill="#fff"/>
      <rect x="17.75" y="11.25" width="4.5" height="8.75" rx="1" fill="#fff"/>
      <rect x="15" y="13.5" width="10" height="4.25" rx="1" fill="#fff"/>
      <circle cx="30.625" cy="11.25" r="1.625" fill="#F5D0FE"/>
      <path d="M30.625 8.75v2M31.625 9.75h-2" stroke="#fff" stroke-width="0.875" stroke-linecap="round"/>
    
  <text x="50" y="33" font-family="'Pretendard', 'Apple SD Gothic Neo', system-ui, sans-serif" font-size="22" font-weight="800"><tspan fill="#111827">마음</tspan><tspan fill="#A78BFA">클리닉</tspan></text>
</svg>