<svg xmlns="http://www.w3.org/2000/svg" width="1200" height="630" viewBox="0 0 1200 630" fill="none" role="img" aria-label="마음클리닉">
  <defs>
    <linearGradient id="bg" x1="0" y1="0" x2="1" y2="1">
    <stop stop-color="#A78BFA"/>
    <stop offset="1" stop-color="#8B5CF6"/>
  </linearGradient>
    <filter id="glow" x="-20%" y="-20%" width="140%" height="140%">
      <feGaussianBlur stdDeviation="18" result="blur"/>
      <feMerge><feMergeNode in="blur"/><feMergeNode in="SourceGraphic"/></feMerge>
    </filter>
  </defs>
  <rect width="1200" height="630" fill="url(#bg)"/>
  <circle cx="980" cy="120" r="200" fill="#ffffff" opacity="0.08"/>
  <circle cx="180" cy="520" r="240" fill="#000000" opacity="0.08"/>
  <rect x="80" y="180" width="112" height="112" rx="28" fill="#ffffff" fill-opacity="0.15" stroke="#ffffff" stroke-opacity="0.2"/>
  <g transform="translate(80,180) scale(3.5)" filter="url(#glow)">
    
      <path d="M16 25c-3.8-3-7.5-5.8-7.5-9.5a3.8 3.8 0 0 1 7.5 0 3.8 3.8 0 0 1 7.5 0c0 3.7-3.7 6.5-7.5 9.5z" fill="#fff"/>
      <rect x="14.2" y="9" width="3.6" height="7" rx="0.8" fill="#fff"/>
      <rect x="12" y="10.8" width="8" height="3.4" rx="0.8" fill="#fff"/>
      <circle cx="24.5" cy="9" r="1.3" fill="#F5D0FE"/>
      <path d="M24.5 7v1.6M25.3 7.8h-1.6" stroke="#fff" stroke-width="0.7" stroke-linecap="round"/>
    
  </g>
  <text x="230" y="235" font-family="system-ui,sans-serif" font-size="68" font-weight="800" fill="#ffffff">마음클리닉</text>
  <text x="230" y="300" font-family="system-ui,sans-serif" font-size="30" fill="#ffffff" opacity="0.8">mind.restyart.com</text>
  <text x="80" y="560" font-family="system-ui,sans-serif" font-size="22" fill="#ffffff" opacity="0.45">Powered by Restyart</text>
</svg>