<svg xmlns="http://www.w3.org/2000/svg" width="1200" height="630" viewBox="0 0 1200 630" fill="none" role="img" aria-label="WonderTale">
  <defs>
    <linearGradient id="bg" x1="0" y1="0" x2="1" y2="1">
    <stop stop-color="#F97316"/>
    <stop offset="1" stop-color="#EA580C"/>
  </linearGradient>
    <filter id="glow" x="-20%" y="-20%" width="140%" height="140%">
      <feGaussianBlur stdDeviation="18" result="blur"/>
      <feMerge><feMergeNode in="blur"/><feMergeNode in="SourceGraphic"/></feMerge>
    </filter>
  </defs>
  <rect width="1200" height="630" fill="url(#bg)"/>
  <circle cx="980" cy="120" r="200" fill="#ffffff" opacity="0.08"/>
  <circle cx="180" cy="520" r="240" fill="#000000" opacity="0.08"/>
  <rect x="80" y="180" width="112" height="112" rx="28" fill="#ffffff" fill-opacity="0.15" stroke="#ffffff" stroke-opacity="0.2"/>
  <g transform="translate(80,180) scale(3.5)" filter="url(#glow)">
    
      <circle cx="18" cy="18" r="6.5" fill="#fff"/>
      <circle cx="15.5" cy="17" r="0.9" fill="#EA580C"/>
      <circle cx="18.5" cy="16" r="0.9" fill="#EA580C"/>
      <path d="M14 21q2-1.5 4 0" stroke="#EA580C" stroke-width="1" fill="none" stroke-linecap="round"/>
      <path d="M12 24q4-3.5 8 0q4 3.5 8 0" fill="#FED7AA"/>
      <path d="M14 10l2 2 4-2.5" stroke="#FEF3C7" stroke-width="1.2" fill="none" stroke-linecap="round"/>
    
  </g>
  <text x="230" y="235" font-family="system-ui,sans-serif" font-size="68" font-weight="800" fill="#ffffff">WonderTale</text>
  <text x="230" y="300" font-family="system-ui,sans-serif" font-size="30" fill="#ffffff" opacity="0.8">wonder.restyart.com</text>
  <text x="80" y="560" font-family="system-ui,sans-serif" font-size="22" fill="#ffffff" opacity="0.45">Powered by Restyart</text>
</svg>