<svg xmlns="http://www.w3.org/2000/svg" width="1200" height="630" viewBox="0 0 1200 630" fill="none" role="img" aria-label="AI 기반 스마트 CRM">
  <defs>
    <linearGradient id="bg" x1="0" y1="0" x2="1" y2="1">
    <stop stop-color="#059669"/>
    <stop offset="1" stop-color="#047857"/>
  </linearGradient>
    <filter id="glow" x="-20%" y="-20%" width="140%" height="140%">
      <feGaussianBlur stdDeviation="18" result="blur"/>
      <feMerge><feMergeNode in="blur"/><feMergeNode in="SourceGraphic"/></feMerge>
    </filter>
  </defs>
  <rect width="1200" height="630" fill="url(#bg)"/>
  <circle cx="980" cy="120" r="200" fill="#ffffff" opacity="0.08"/>
  <circle cx="180" cy="520" r="240" fill="#000000" opacity="0.08"/>
  <rect x="80" y="180" width="112" height="112" rx="28" fill="#ffffff" fill-opacity="0.15" stroke="#ffffff" stroke-opacity="0.2"/>
  <g transform="translate(80,180) scale(3.5)" filter="url(#glow)">
    
      <path d="M16 6.5l0.9 2.6 2.8 .4-1.4 2.4-2.8-1.6-2.8.4z" fill="#A7F3D0"/>
      <circle cx="11.5" cy="17.5" r="2.8" fill="#fff"/>
      <circle cx="20.5" cy="17.5" r="2.8" fill="#fff"/>
      <path d="M7 24.5q4.5-3.2 9 0q4.5 3.2 9 0" stroke="#fff" stroke-width="1.8" fill="none" stroke-linecap="round"/>
      <path d="M13 21h6" stroke="#A7F3D0" stroke-width="1.2" stroke-linecap="round" opacity="0.8"/>
    
  </g>
  <text x="230" y="235" font-family="system-ui,sans-serif" font-size="68" font-weight="800" fill="#ffffff">AI 기반 스마트 CRM</text>
  <text x="230" y="300" font-family="system-ui,sans-serif" font-size="30" fill="#ffffff" opacity="0.8">crm.restyart.com</text>
  <text x="80" y="560" font-family="system-ui,sans-serif" font-size="22" fill="#ffffff" opacity="0.45">Powered by Restyart</text>
</svg>